<svg xmlns="http://www.w3.org/2000/svg" xmlns:xlink="http://www.w3.org/1999/xlink" viewBox="0 0 816.41 791.04"><defs><style>.cls-1{font-size:753.83px;fill:#39d377;font-family:ForteMT, Forte;}.cls-2{fill:url(#linear-gradient);}</style><linearGradient id="linear-gradient" x1="146.96" y1="653.45" x2="645.25" y2="267.02" gradientUnits="userSpaceOnUse"><stop offset="0" stop-color="#2a5997"/><stop offset="0.47" stop-color="#322189"/><stop offset="1" stop-color="#e706d0"/></linearGradient></defs><title>Asset 15</title><g id="Layer_2" data-name="Layer 2"><g id="Layer_1-2" data-name="Layer 1"><text class="cls-1" transform="translate(0 629.82)">M</text><path class="cls-2" d="M452.05,437.17l7.36-16.53Q546.26,224.77,585.27,166a161.63,161.63,0,0,1,10.67-12.68A56.26,56.26,0,0,1,606.07,145a88.67,88.67,0,0,1,14.9-7.35q26.49-11.39,68.45-11.39,21.71,0,27.42,3.68t5.71,16.56q0,9.94-.74,21.35-3,66.26-2.94,94.23,0,70.67,9.57,134a505.7,505.7,0,0,0,18.4,71.78q12.88,32.38,24.66,49.69,14,19.14,23.56,28,11.78,11.79,11.78,18,0,11.41-19.51,30.92-32.76,31.65-65.52,31.65-46,0-83.55-39.38a154.07,154.07,0,0,1-30.37-42.52q-11.24-23.37-16.75-57.78T583.78,399q-2.58-57.42-2.95-64.79h-1.47q-23.21,44.55-38.68,74.36t-25.23,49.32q-9.77,19.51-23,46.75-42,86.87-54.88,104.9c-.5.49-1.48,1.6-2.95,3.31a30.74,30.74,0,0,1-4.05,4.05,44.16,44.16,0,0,1-14.18,9q-7.92,3.13-13.45,3.13-15.46,0-34.07-19.33t-32.59-49.87a451.4,451.4,0,0,1-23.44-66.09q-9-33.69-15.9-79.93T284.91,301h-1.48l-16.6,36.43q-5.54,12.15-17,37.55T236.58,404.4q-15.14,33.5-31.73,67.72t-26.71,52.66Q168,543.22,155.9,561.27q-5.52,8.47-19.48,24A170,170,0,0,1,89,617.48q-25.74,11.61-48.9,11.61a27.12,27.12,0,0,1-15.44-4.42Q18,620.26,18,613.26,18,607,28,596.7q5.52-6.63,23.94-33.87l21.37-33.12q19.89-29.45,60-105.64L151,390.94q61.88-118.51,83.61-162.14t21.73-50.61q0-7.74-11.13-17.3-8.55-7-8.54-12.15,0-8.09,21.37-15.28a145.06,145.06,0,0,1,46.42-7.17q50.49,0,71.85,22.45,13.28,14,24.69,55t22.9,118.87c.5,2.93.86,5.2,1.11,6.79s.49,3,.74,4.22a25.54,25.54,0,0,1,.37,4.77q2.22,10.29,2.23,13.58,7.75,47.37,11.84,61.13A74.13,74.13,0,0,0,452.05,437.17Z"/></g></g></svg>