<svg xmlns="http://www.w3.org/2000/svg" viewBox="0 0 437.74 333.17"><defs><style>.cls-1{fill:#028036;}.cls-2{fill:#486fa8;}.cls-3{fill:#86b45a;}.cls-4{fill:#907323;}.cls-5{fill:#057f36;}.cls-6{fill:#035a3a;}.cls-7,.cls-9{fill:#f6e65d;}.cls-8,.cls-9{font-size:13.69px;font-family:Poppins-Regular, Poppins;}</style></defs><title>Asset 16</title><g id="Layer_2" data-name="Layer 2"><g id="Layer_1-2" data-name="Layer 1"><path class="cls-1" d="M428.94,0c-1.46,3.66-.47,6.67,3.05,9,3.88,2.57,5.06,5.76,3.53,10-.69,1.9-1.21,4.51-.29,6.11,6,10.49,0,19.22-5.16,27.78-3.62,6-7.33,11.88-10.44,18.09C416,78.29,413.21,85.72,413,93.9c-.3,11.24-6.95,21.38-7.74,32.59a49.69,49.69,0,0,0-13.81,2c-16.55,4.82-33.6,6.4-50.9,6.08-8.53-.16-11.74-3.49-11.66-10.94a116.07,116.07,0,0,0-.23-14.21c-1.19-10.67-3.35-17.35-16.46-17.24-4.53,0-11.83-.46-11.75-7.74,0-2.08.58-4.47-2.09-5.49-2.89-1.11-4.91.79-6.56,2.49-3.46,3.58-6.67,7.34-10.05,11a9.23,9.23,0,0,1-9,3.08c-3.55-.72-3.17-3.69-3.91-5.94s-1.14-4.41-1.7-6.62c6.64-4.72,7.53-7.95,4.56-16.59-2.76-8-2.58-8.23,7-7.43,10.35.88,22.14-10.63,21.69-21.29a38.46,38.46,0,0,0-1-6.16c-1.14-5.55,2.94-8.94,9-7,7.21,2.37,13.7,2.28,19.67-2.48,1.43-1.14,3.31-2.17,5.24-1,6.84,4,14.13,2,21.17,1.12,4.85-.63,9.58-1.64,14.55-1.39,5.39.27,7.62-2.22,6-6.78-2.05-5.91-.8-10.62,5.29-14Z"/><path class="cls-2" d="M215.7,276.07c-3.25-4.23-5.33-8.94-7.57-13.62-1.22-2.51,1-2.84,1.56-4.18-5.31-5-2.33-11.06-2.24-16.64.05-2.94,1.66-5.82,2.47-8.76,1.11-4,.91-6.88-3.26-10.33-5.89-4.88-7.4-12.55-9.84-19.32a11.4,11.4,0,0,0-4.17-5.94c-.91.54-1.71,1-2.42,1.44a21.76,21.76,0,0,1-1.93,1.05,7.26,7.26,0,0,1-.81.38c-.25.1-.51.19-.74.26-2.62.8-4.09-.57-8.37-4.4-3.58-3.21-8.79-1.92-13-3.42-10.88,2-21.58,1.08-32.07-1.85-9.77-2.74-14.18-1.06-18.8,7.44-3.37,6.2-4.29,13-6.28,19.58a18.36,18.36,0,0,1-4,7.58c.89,10.62-1.33,21.12-1.29,31.71,0,5.64,1.29,9.61,8.85,9.94,5,.23,5,3.45,3.51,6.65-1,2.17-1.79,4-.35,6.39,4.88,8.13,2.63,14.65-6.35,19.46-2.92,1.56-6.16,2.8-8.61,4.8s-3.67,4.64-2.16,7.7c7,.85,13,3.27,19.2,6.55,8.17,4.31,17.86,6.63,27.61,7.66,3.63.37,5.92-1.66,8.18-3.71,1.54-1.4,3.33-2.86,5.53-1.78,2.56,1.28,2.73,3.73,2.1,6s-1.51,4.29-2.3,6.42h53.9c3.36-7.21,4.36-14.9,5.81-22.51a30.67,30.67,0,0,1,1.46-5.47C223.54,294.93,222.72,285.19,215.7,276.07Zm-35.06-27.48a2.8,2.8,0,0,1-1-.47,2.78,2.78,0,0,1,1-.4c.34,0,.66.28,1,.47A3,3,0,0,1,180.64,248.59Z"/><path class="cls-3" d="M108.63,299.49c-2.92,1.56-6.16,2.8-8.61,4.8s-3.67,4.64-2.16,7.7h0c.5,2,1,4,1.5,6,1.2,5.05,5.11,9.59,3.65,15.15H49.11c-1.73-3.75-5.64-6.68-5.44-11.22,0-1.23,1.95-3.32-.93-3.51a3.86,3.86,0,0,0-4.05,3.64,22.77,22.77,0,0,0,1.44,11.09h-9c-6.78-5.64-7.39-14.62-14.13-20.41-2.43-2.09-1.95-5.88-1.81-8.74C16,289.07,9,274.86,10.31,259.8c.45-5.28-5-9.9-5.29-15.56-.1-1.68-1.06-3.52.14-4.94,4.11-4.85,2.77-10,1.39-15.17,8.11-.09,16.26.23,24.32-.42,6.3-.5,12.39,3.25,18.1,1.38,7-2.31,13.13-1.28,19,1.52,3.72,1.76,7.12,1.87,10.31.23,8.46-4.37,17.07-4,26-1.5.89,10.62-1.33,21.12-1.29,31.71,0,5.64,1.29,9.61,8.85,9.94,5,.23,5,3.45,3.51,6.65-1,2.17-1.79,4-.35,6.39C119.86,288.16,117.61,294.68,108.63,299.49Z"/><path class="cls-4" d="M209.69,258.27c-5.31-5-2.34-11.06-2.24-16.65.05-2.92,1.67-5.81,2.48-8.74,1.1-4,.91-6.88-3.27-10.34-5.89-4.88-7.39-12.55-9.84-19.32a11.54,11.54,0,0,0-4.16-5.95c1.16-3-1.24-6.27,1.93-9.16,8.34-7.6,11.21-17.05,11.2-27.5a30.83,30.83,0,0,1,7.6-20.71c8.66-9.78,6.6-21.1,7.32-32.08.08-1.15-1-2.52-1.89-3.55a55.77,55.77,0,0,1-11.66-21.92c2.28-2.95,3.94-3.33,7.37-.4,7.73,6.6,16.38,10.92,28,6.94,7.87-2.69,16.34-4,24.54-5.9.56,2.21,1,4.46,1.7,6.62s.36,5.22,3.91,5.94a9.23,9.23,0,0,0,9-3.08c3.38-3.64,6.59-7.4,10.05-11,1.65-1.7,3.67-3.6,6.56-2.49,2.67,1,2.12,3.41,2.09,5.49-.08,7.28,7.22,7.77,11.75,7.74,13.11-.11,15.27,6.57,16.46,17.24a116.07,116.07,0,0,1,.23,14.21c-.08,7.45,3.13,10.78,11.66,10.94,17.3.32,34.35-1.26,50.9-6.08a49.69,49.69,0,0,1,13.81-2c.76,11.26,3.72,22.39,1.14,33.85-1.63,7.24-5.87,9.56-12.84,5.48a35.39,35.39,0,0,1-8.59-6.77c-4.38-4.89-10.79-6.61-17.24-8-1.35-.3-3.52-.28-4.3.45-5.44,5-13.2,8.77-12.89,17.27.23,6.17-.32,12.28,3.14,18.17,3.36,5.73,2.71,12.44,3.71,18.7.75,4.74-4,6.79-8.42,6.46-6.47-.48-9.65,3.15-10.57,7.15-1.87,8.21-8.87,10.59-16,12.54-7.79,2.14-15.75,4.9-24.27,2.28a10.55,10.55,0,0,0-5.08.12c-11.64,2.69-22.69-.62-33.82-2.67-2.28-.42-4.5-.78-6.82-1-4-.39-5.88,1.42-7.17,4.32s1,5.13,2.93,6.06c6.08,2.89,8.68,8.2,12.11,12.82,2.18,2.95,4.43,6.48,1.77,10.55a12.15,12.15,0,0,1-19.3,1.48c-2.55-2.74-4.51-5.92-6.91-8.78-3.87-4.61-8.39-6.11-14.91-3.59C217.07,254.84,213.63,257,209.69,258.27Z"/><path class="cls-5" d="M105.57,173.39a.07.07,0,0,1,0,.05h0l.05,0Z"/><path class="cls-6" d="M123.22,153.36c-3-3.89-7.45-6.36-12.15-8.08-3.61-1.31-6.54-3.24-8.27-6C98.18,132,90.42,127,85.27,120.11c-5,.5-10.48,2.9-15,.54-7.24-3.72-12.47-1.43-17.89,2.61-2.11,1.58-4.77,3.44-7.49,1.8-3.34-2-5.52-.72-8,1-3,2.09-6,2.72-9.1,0-4.21-3.66-8.52-3.09-12.92,1.82-3.3,3.68-2.5,6.88,1.91,9.6,3.72,2.28,6.19,5.23,4.66,9.65s-2.93,8.67-4.29,13a11.11,11.11,0,0,1-4.59,6c-10.86,7.36-11,7.43-4.53,18.11,2.21,3.64,1.68,6.17-1.37,9.12-8.87,8.55-8.78,21.68-.08,30.8,8.11-.09,16.26.23,24.32-.42,6.3-.5,12.39,3.25,18.1,1.38,7-2.31,13.13-1.28,19,1.52,3.72,1.76,7.12,1.87,10.31.23,8.46-4.37,17.07-4,26-1.5a18.36,18.36,0,0,0,4-7.58c2-6.55,2.91-13.38,6.28-19.58,4.62-8.5,9-10.18,18.8-7.44,10.49,2.93,21.19,3.9,32.07,1.85A173.75,173.75,0,0,1,123.22,153.36ZM105.6,173.44h0a.07.07,0,0,0,0-.05l.08,0Z"/><path class="cls-7" d="M220.71,107.82c-.71,11,1.34,22.3-7.32,32.09a30.8,30.8,0,0,0-7.6,20.7c0,10.46-2.86,19.9-11.2,27.5-3.17,2.89-.77,6.21-1.94,9.15l-2.42,1.46c-.72.41-1.35.77-1.93,1.05-.28.14-.55.27-.81.38s-.51.19-.74.26c-2.62.8-4.09-.57-8.37-4.4-3.58-3.21-8.79-1.92-13-3.42a173.75,173.75,0,0,1-42.15-39.23c-3-3.89-7.45-6.36-12.15-8.08-3.61-1.31-6.54-3.24-8.27-6C98.18,132,90.42,127,85.27,120.11c9.08-4.82,18.49-9.17,26.07-16a16.62,16.62,0,0,0,4.34-5.5c2.33-5.12,6.79-7.73,11.94-5.55,5.64,2.37,9.78.4,13.34-2.27,4.55-3.41,9.18-3.59,14.29-2.34,4,1,7.49.12,11.07-1.41,6.75-2.87,13.52-6.27,20.47-.08a2.76,2.76,0,0,0,4.64-1c2.23-6,6-7.24,12-3.73.88.53,2.49.07,3.74.07a55.73,55.73,0,0,0,11.66,21.93C219.71,105.3,220.79,106.67,220.71,107.82Z"/><path class="cls-5" d="M181.72,248.19a3.12,3.12,0,0,1-1.08.4c-.33,0-.65-.3-1-.47a3,3,0,0,1,1-.41C181,247.72,181.35,248,181.72,248.19Z"/><path class="cls-5" d="M105.65,173.41l-.05,0h0a.07.07,0,0,0,0-.05Z"/><text class="cls-8" transform="translate(333.64 67.33) scale(1.12 1)">Barlekha</text><text class="cls-8" transform="translate(141.16 132) scale(1.12 1)">Rajnagar</text><text class="cls-9" transform="translate(26.95 179.92) scale(1.12 1)">Moulvibazar</text><text class="cls-8" transform="translate(20.54 281.47) scale(1.12 1)">Srimangal</text><text class="cls-8" transform="translate(116.78 257.51) scale(1.12 1)">Kamalganj</text><text class="cls-8" transform="translate(246.38 166.23) scale(1.12 1)">Kulaura</text></g></g></svg>